# xmcd
#
# Track frame offsets:
#	150
#	22493
#	54388
#	73182
#
# Disc length: 1346 seconds
#
# Revision: 1
# Processed by: cddbd v1.5PL3 Copyright (c) Steve Scherf et al.
# Submitted via: EasyCDDAExtractor 7.0.4.1
#
DISCID=39054004
DTITLE=Electric Lady Band - Official Bootleg
DYEAR=2004
DGENRE=Blues
TTITLE0=Redhouse (J. Hendrix)
TTITLE1=Superstition (S. Wonder)
TTITLE2=No woman, no cry (B. Marley)
TTITLE3=Tyttooed Lady (R. Gallagher)
EXTD=
EXTT0=
EXTT1=
EXTT2=
EXTT3=
PLAYORDER=
